<?xml version="1.0" standalone="no"?>
<!DOCTYPE svg PUBLIC "-//W3C//DTD SVG 20010904//EN"
 "http://www.w3.org/TR/2001/REC-SVG-20010904/DTD/svg10.dtd">
<svg version="1.0" xmlns="http://www.w3.org/2000/svg"
 width="991.000000pt" height="991.000000pt" viewBox="0 0 991.000000 991.000000"
 preserveAspectRatio="xMidYMid meet">
<metadata>
Created by potrace 1.11, written by Peter Selinger 2001-2013
</metadata>
<g transform="translate(0.000000,991.000000) scale(0.100000,-0.100000)"
fill="#000000" stroke="none">
<path d="M6729 8383 c-17 -44 -13 -294 6 -392 2 -9 6 -57 10 -107 4 -49 11
-112 14 -140 11 -82 5 -227 -13 -288 -24 -81 -68 -126 -129 -133 -101 -12
-206 57 -384 253 -15 17 -66 73 -113 124 -182 200 -301 303 -331 284 -29 -17
19 -151 117 -324 21 -36 71 -126 113 -200 125 -220 154 -292 155 -386 0 -130
-77 -183 -234 -161 -81 12 -133 31 -365 132 -281 123 -379 159 -440 159 -40 1
-50 -2 -53 -17 -6 -28 123 -148 293 -271 83 -61 162 -119 177 -130 14 -12 41
-32 60 -45 18 -13 67 -59 108 -101 92 -94 122 -162 102 -227 -21 -66 -62 -98
-162 -127 -82 -24 -124 -26 -448 -31 -163 -2 -306 -6 -317 -8 -11 -2 -41 -7
-66 -11 -26 -4 -54 -15 -63 -25 -15 -16 -15 -19 2 -34 36 -33 169 -76 357
-117 392 -83 465 -106 552 -169 44 -32 72 -75 79 -121 9 -57 -52 -144 -143
-204 l-41 -27 -113 76 c-277 186 -595 302 -950 348 -101 13 -399 15 -484 3
-109 -15 -186 -29 -240 -43 -33 -8 -67 -16 -75 -18 -93 -18 -296 -97 -441
-171 -93 -47 -293 -172 -309 -193 -3 -3 -23 -20 -45 -36 -92 -69 -236 -211
-324 -320 -31 -38 -58 -72 -61 -75 -3 -3 -27 -37 -54 -77 l-49 -72 -66 34
c-255 132 -568 174 -859 116 -118 -24 -324 -106 -399 -159 -17 -12 -34 -22
-37 -22 -17 0 -142 -105 -221 -185 -151 -152 -263 -344 -322 -550 -20 -73 -43
-204 -43 -250 0 -40 0 -40 -52 -53 -63 -15 -134 -51 -202 -102 -175 -133 -257
-365 -211 -595 48 -243 277 -442 525 -458 l55 -3 12 -92 c21 -156 94 -302 207
-412 64 -62 90 -80 176 -124 169 -87 399 -96 579 -23 l60 24 7 -21 c39 -131
131 -276 243 -386 185 -180 413 -271 668 -265 123 2 172 9 263 37 187 58 366
184 482 339 l34 47 70 -30 c128 -55 326 -117 424 -133 19 -3 51 -10 70 -14 19
-5 42 -9 50 -9 8 0 33 -2 55 -6 101 -15 360 -22 440 -12 17 2 59 7 95 11 36 4
81 10 100 15 19 5 51 11 70 13 148 20 516 160 650 247 14 9 41 26 61 38 l37
22 45 -62 c193 -271 469 -452 799 -524 147 -32 428 -25 578 15 352 94 623 306
825 646 9 14 19 15 78 7 75 -10 275 -9 352 2 215 31 466 143 630 281 l60 51
75 -24 c148 -48 318 -34 455 36 93 48 208 163 252 252 118 242 76 506 -108
692 -49 49 -88 77 -151 107 -46 23 -92 41 -100 41 -12 0 -19 18 -28 73 -23
148 -108 361 -191 484 -127 187 -295 337 -490 440 -83 44 -262 109 -330 119
-69 10 -73 16 -39 49 42 40 129 46 211 16 59 -22 167 -84 235 -135 303 -225
479 -336 533 -336 42 0 22 60 -52 160 -23 30 -46 60 -52 67 -5 6 -32 37 -60
69 -27 32 -95 107 -149 168 -174 195 -233 289 -242 388 -13 137 116 195 360
163 28 -3 53 -8 57 -10 4 -3 24 -7 45 -10 22 -4 46 -8 54 -10 8 -2 30 -7 48
-10 19 -3 71 -14 115 -25 45 -10 100 -21 122 -24 23 -4 52 -9 65 -12 64 -13
210 -16 225 -4 45 38 -55 100 -450 280 -290 132 -365 184 -419 288 -28 55 -5
128 56 174 68 52 200 104 316 124 15 3 56 12 92 20 36 9 78 18 94 21 16 2 90
20 165 38 247 61 323 111 218 144 -59 18 -120 22 -417 26 -374 6 -413 11 -516
61 -89 45 -114 125 -66 219 24 47 122 154 187 203 17 12 120 89 230 171 208
154 305 244 305 282 0 20 -3 21 -52 16 -75 -7 -150 -35 -433 -157 -137 -60
-279 -116 -315 -125 -242 -62 -348 46 -269 276 22 64 51 121 141 278 26 46 48
85 48 87 0 1 19 35 43 76 78 132 129 248 131 296 0 25 -4 47 -10 49 -33 11
-171 -115 -388 -358 -205 -229 -311 -308 -415 -309 -130 0 -190 169 -158 446
3 27 9 78 12 114 4 36 8 79 10 95 20 163 23 380 6 413 -39 73 -93 -27 -214
-390 -42 -125 -88 -258 -103 -295 -72 -182 -189 -276 -285 -228 -92 45 -152
156 -258 475 -40 118 -75 224 -80 235 -5 11 -21 51 -36 88 -51 126 -94 167
-116 110z"/>
</g>
</svg>
